<svg xmlns="http://www.w3.org/2000/svg" width="70" height="70" fill="none" viewBox="0 0 100 100"><mask id="a"><rect width="100" height="100" fill="#fff" rx="0" ry="0"/></mask><g mask="url(#a)"><path fill="#1c799f" d="M0 0h100v100H0z"/><path fill="#69d2e7" d="M95.496 58.125c2.501-23.799-15.51-45.199-40.224-47.796S8.49 24.919 5.989 48.718l-9.06 86.195 89.507 9.407 9.06-86.195Z"/><path fill="#fff" d="M55.85 33.064c-3.597-1.454-5.007-6.586-4.116-6.894.89-.31 1.951 2.19 5.447 3.602 3.495 1.413 6.025.277 6.42 1.192s-4.153 3.553-7.75 2.1Zm25.035 10.114c-3.598-1.453-5.008-6.585-4.117-6.894.89-.309 1.951 2.19 5.447 3.603 3.495 1.412 6.025.277 6.42 1.192s-4.153 3.553-7.75 2.1ZM59.377 60.373c-12.146-4.907-9.814-17.673-8.61-18.33 1.213-.653 4.97 4.036 13.064 7.306s14.054 2.508 14.473 3.82c.406 1.318-6.78 12.112-18.927 7.204Z"/></g></svg>