<svg xmlns="http://www.w3.org/2000/svg" width="70" height="70" fill="none" viewBox="0 0 100 100"><mask id="a"><rect width="100" height="100" fill="#fff" rx="0" ry="0"/></mask><g mask="url(#a)"><path fill="#69d2e7" d="M0 0h100v100H0z"/><path fill="#0a5b83" d="M97.81 57.708c1.253-23.897-17.854-44.325-42.67-45.626S9.187 29.101 7.934 52.998l-4.536 86.55 89.877 4.711 4.536-86.551Z"/><path fill="#fff" d="M48.987 59.723s-1.129-4.211 2.735-5.246 4.992 3.176 4.992 3.176l.753 2.81s.19.706-.458.88c-.637.17-1.388-2.631-3.967-1.94s-1.829 3.492-2.466 3.663c-.647.173-.836-.532-.836-.532l-.75-2.8Zm17.386-4.658s-1.128-4.212 2.736-5.247 4.992 3.176 4.992 3.176l.753 2.811s.189.705-.458.879c-.638.17-1.388-2.63-3.967-1.94s-1.829 3.492-2.466 3.663c-.648.174-.836-.531-.836-.531l-.751-2.802Zm.406 20.058c-.174-.647-4.575-.845-4.748-1.492-.171-.637 6.935-1.164 7.452.768s-3.368 3.656-3.368 3.656 4.23-.44 4.745 1.482c.518 1.932-5.9 5.029-6.07 4.391-.174-.647 3.539-3.019 3.366-3.666-.171-.638-3.725-.379-4.07-1.663s2.864-2.838 2.693-3.476Z"/></g></svg>