<svg xmlns="http://www.w3.org/2000/svg" viewBox="0 0 100 100" fill="none" shape-rendering="auto" width="70" height="70"><desc>"Thumbs" by "Florian Körner", licensed under "CC0 1.0". / Remix of the original. - Created with dicebear.com</desc><metadata xmlns:dc="http://purl.org/dc/elements/1.1/" xmlns:cc="http://creativecommons.org/ns#" xmlns:rdf="http://www.w3.org/1999/02/22-rdf-syntax-ns#"><rdf:RDF><cc:Work><dc:title>Thumbs</dc:title><dc:creator><cc:Agent rdf:about="https://dicebear.com"><dc:title>Florian Körner</dc:title></cc:Agent></dc:creator><dc:source>https://dicebear.com</dc:source><cc:license rdf:resource="https://creativecommons.org/publicdomain/zero/1.0/" /></cc:Work></rdf:RDF></metadata><mask id="viewboxMask"><rect width="100" height="100" rx="0" ry="0" x="0" y="0" fill="#fff" /></mask><g mask="url(#viewboxMask)"><rect fill="#0a5b83" width="100" height="100" x="0" y="0" /><g transform="translate(3, 1) rotate(3 50 70)"><path d="M95 53.33C95 29.4 74.85 10 50 10S5 29.4 5 53.33V140h90V53.33Z" fill="#69d2e7"/><g transform="translate(29 33)"><g transform="translate(3, 2) rotate(9 21 21)"><g transform="translate(0 3)"><path d="M7 8.36S7 4 11 4s4 4.36 4 4.36v2.91s0 .73-.67.73c-.66 0-.66-2.9-3.33-2.9S8.33 12 7.67 12C7 12 7 11.27 7 11.27v-2.9ZM27 8.36S27 4 31 4s4 4.36 4 4.36v2.91s0 .73-.67.73c-.66 0-.66-2.9-3.33-2.9S28.33 12 27.67 12c-.67 0-.67-.73-.67-.73v-2.9Z" fill="#ffffff"/></g><g transform="translate(6 25)"><path d="M15 14C1.9 14-.72 1.29.15.23 1.03-.83 6.27 2.11 15 2.11S28.97-.83 29.85.23C30.72 1.3 28.1 14 15 14Z" fill="#ffffff"/></g></g></g></g></g></svg>