<svg xmlns="http://www.w3.org/2000/svg" width="70" height="70" fill="none" viewBox="0 0 100 100"><mask id="a"><rect width="100" height="100" fill="#fff" rx="0" ry="0"/></mask><g mask="url(#a)"><path fill="#0a5b83" d="M0 0h100v100H0z"/><path fill="#f88c49" d="M96.781 64.545c6.194-23.115-8.249-47.069-32.252-53.5S16.041 18.136 9.848 41.25l-22.432 83.717 86.933 23.294 22.432-83.717Z"/><path fill="#fff" d="M43.119 51.907c-1.1 1.905-3.16 2.794-4.599 1.964s-1.698-3.06-.598-4.964 3.16-2.794 4.598-1.964 1.699 3.058.599 4.964Zm17.521 6.652c-2.78-1.605-4.577-1.073-4.917-.484-1.7 2.945.442 1.814 3.222 3.42s2.877 4.016 4.572 1.08c.34-.589-.097-2.411-2.877-4.016ZM39.346 77.441c-4.391-2.535-5.44-9.179-4.309-9.277 1.13-.098 1.913 3.587 6.174 6.047 4.26 2.46 7.883 1.226 8.323 2.323.44 1.097-5.797 3.442-10.188.907Z"/></g></svg>