<svg xmlns="http://www.w3.org/2000/svg" width="70" height="70" fill="none" viewBox="0 0 100 100"><mask id="a"><rect width="100" height="100" fill="#fff" rx="0" ry="0"/></mask><g mask="url(#a)"><path fill="#0a5b83" d="M0 0h100v100H0z"/><path fill="#1c799f" d="M90.728 49.232C89.058 25.36 67.604 7.412 42.815 9.146S-.722 31.638.947 55.51l6.046 86.459 89.78-6.279-6.045-86.458Z"/><path fill="#fff" d="M42.654 50.219c-3.842.54-7.63-3.2-7.013-3.912.617-.713 2.786.92 6.52.396 3.732-.525 5.355-2.772 6.156-2.178s-1.82 5.154-5.663 5.694Zm26.737-3.758c-3.842.54-7.63-3.2-7.012-3.912.616-.713 2.785.921 6.518.396 3.734-.524 5.357-2.772 6.157-2.178s-1.82 5.154-5.663 5.694ZM58.425 63.998c-.093-.664-4.437-1.396-4.53-2.06-.092-.653 7.025-.31 7.303 1.67s-3.789 3.219-3.789 3.219 4.252.079 4.53 2.05c.278 1.98-6.469 4.271-6.56 3.618-.094-.664 3.88-2.566 3.787-3.229-.092-.654-3.651-.83-3.836-2.147s3.187-2.468 3.095-3.121Z"/></g></svg>